<?xml version="1.0" encoding="utf-8"?>
<!-- Generator: Adobe Illustrator 19.2.1, SVG Export Plug-In . SVG Version: 6.00 Build 0)  -->
<svg version="1.1" id="layer" xmlns="http://www.w3.org/2000/svg" xmlns:xlink="http://www.w3.org/1999/xlink" x="0px" y="0px"
	 viewBox="0 0 652 652" style="enable-background:new 0 0 652 652;" xml:space="preserve">
<style type="text/css">
	.st0{fill-rule:evenodd;clip-rule:evenodd;fill:#71706F;}
	.st1{fill-rule:evenodd;clip-rule:evenodd;fill:#717070;}
	.st2{fill-rule:evenodd;clip-rule:evenodd;fill:#6DBD46;}
</style>
<g>
	<path class="st0" d="M176.2,310.4c-0.5-0.1-1.2,0.1-1.9,0.1c-2.7,0-5.4-0.1-8.1-0.1c-0.3,0-0.7,0-1,0c-0.6,0-0.9,0.3-0.9,0.9
		c0,0.4,0,0.8,0,1.1c0,3.3-1.1,6.1-3.2,8.5c-2.1,2.6-4.6,4.9-7.1,7c-0.7,0.6-0.8,0.6-1.4-0.1c-1.9-2.1-3.9-4.3-5.8-6.4
		c-0.7-0.7-0.7-0.8,0-1.5c1.1-1.1,2.3-2.3,3.4-3.4c1.2-1.3,1.9-2.7,2-4.5c0.2-2.9,0.3-5.8,0.5-8.8c0.3-4.6,0.4-9.2,0.8-13.8
		c0.2-2.1,0.1-4.2,0.3-6.3c0.2-2.4,0.3-4.7,0.3-7.1c0-1.3,0.3-1.5,1.6-1.7c2.2-0.4,4.4-0.8,6.6-1.2c1.1-0.2,2.1-0.4,3.2-0.6
		c0.5-0.1,0.7,0.1,0.7,0.6c0,0.5,0,1.1-0.1,1.6c-0.3,5.1-0.6,10.2-0.8,15.3c-0.1,2.7-0.3,5.4-0.4,8.1c0,1.1,0,1.1,1.1,1.1
		c3.2,0,6.3,0,9.5,0c0.9,0,0.9,0,1-0.9c0-0.4,0.1-0.7,0.1-1.1c0.1-3.4,0.2-6.9,0.3-10.3c0.2-7.3,0.4-14.5,0.7-21.8
		c0.1-3.4,0.1-6.7,0.3-10.1c0.1-1.2,0.1-1.3,1.2-1.5c1.8-0.3,3.7-0.7,5.5-1c1.4-0.3,2.9-0.5,4.3-0.8c1-0.2,1.1-0.1,1.1,0.9
		c-0.1,3.8-0.3,7.6-0.4,11.4c-0.1,6-0.4,12-0.6,18c-0.2,6.4-0.4,12.9-0.6,19.3c-0.1,2.7-0.2,5.3-0.2,8c0,0.2,0,0.4-0.1,0.7
		c-0.1,0.4-0.3,0.7-0.8,0.6c-2.6-0.2-5.2,0.1-7.8,0C178.6,310.4,177.5,310.4,176.2,310.4 M195.9,309.1c0,1.1,0.1,1.2,1.1,1.2
		c3.3,0,6.5,0,9.8,0c1,0,1-0.1,1.1-1c0-4.4,0.4-8.8,0.4-13.2c0.1-4.3,0.3-8.5,0.4-12.8c0.1-6.6,0.4-13.1,0.6-19.7
		c0.1-3.4,0.1-6.7,0.3-10.1c0-0.5,0-1,0-1.5c0-0.4-0.2-0.6-0.6-0.5c-0.3,0-0.6,0.1-0.9,0.1c-2.2,0.4-4.4,0.8-6.6,1.3
		c-1,0.2-1.9,0.4-2.9,0.6c-1,0.2-1.2,0.4-1.2,1.4c0,4.9-0.3,9.8-0.5,14.7c-0.1,4.2-0.3,8.4-0.4,12.6c-0.2,6.9-0.5,13.8-0.6,20.1
		C196,305,196,307.1,195.9,309.1 M136.1,316.5c-1.9,1.9-3.8,3.8-5.7,5.7c-0.5,0.5-0.8,0.6-1.3,0c-0.1-0.2-0.4-0.3-0.5-0.4
		c-1.9-1.9-3.7-3.8-5.6-5.7c-0.6-0.6-0.7-0.5-1.3,0.1c-2.1,2.2-4.3,4.3-6.4,6.5c-0.8,0.8-0.8,0.8,0,1.6c2,2.1,4,4.1,6.1,6.2
		c0.9,0.9,0.8,1.1,1.9,0c1.9-2,3.8-3.9,5.8-5.8c0.6-0.6,0.7-0.6,1.3,0c0.7,0.7,1.3,1.3,2,2c1.4,1.4,2.7,2.8,4.1,4.2
		c0.6,0.6,0.7,0.5,1.2,0c2.3-2.3,4.6-4.6,6.9-6.8c0.4-0.4,0.4-0.7,0-1c-2.4-2.3-4.7-4.6-7-7C136.8,315.6,136.5,316.1,136.1,316.5
		 M73.1,253.8c-0.4-0.4-0.7-0.3-1.1,0.1c-2.3,2.3-4.6,4.6-6.8,6.8c-0.4,0.4-0.5,0.7,0,1.1c2.3,2.3,4.6,4.6,6.9,6.9
		c0.4,0.4,0.7,0.4,1,0c2.3-2.3,4.6-4.6,6.9-6.9c0.3-0.3,0.5-0.7,0-1c-0.1-0.1-0.2-0.1-0.2-0.2C77.7,258.2,75.3,256,73.1,253.8
		 M98.5,292.2c0,5.2-0.2,10.5-0.5,15.7c-0.1,2.3-0.2,2.3-2.4,2.3c-11.4,0-22.7,0-34.1,0c-2.4,0-2.4,0-2.6,2.4
		c-0.3,2.8-0.8,5.4-2.1,8c-1.7,3.4-4.4,5.7-8,6.7c-5.6,1.7-11.3,1.7-16.9-0.2c-5.1-1.7-8.3-5.3-9.3-10.7c-0.2-0.8-0.1-1.7-0.6-2.5
		v-0.4c0.6-1,0.5-2.2,0.5-3.3c0-3.5,0.7-7,0.6-10.5c0.3-3.5,0.3-6.9,0.8-10.4c0.3-1.9,0.3-1.9,2.3-2.3c2.9-0.6,5.8-1,8.6-1.5
		c1-0.2,1.1,0,1.1,0.9c-0.4,6.5-0.9,13-1.3,19.5c-0.2,2.4-0.4,4.8-0.4,7.2c0,1,0.1,1.9,0.6,2.8c2.7,2.8,6.9,3.5,10,1.5
		c1.6-1.4,2.1-3.3,2.3-5.3c0.3-4.5,0.4-9.1,0.8-13.6c0.2-1.8,0.1-3.7,0.2-5.5c0.4-5.8,0.6-11.5,1-17.3c0.1-0.9,0.2-1.2,0.9-1.3
		c3.4-0.7,6.8-1.3,10.1-2c1-0.2,1.1-0.1,1,0.9c0,0.9-0.1,1.7-0.1,2.6c0,0.8,0.2,0.9,0.8,0.5c1.7-1.1,3.5-1.9,5.3-2.6
		c2.7-1,5.4-1.6,8.2-1.6c3,0,6.1-0.1,9.1,0.2c2.5,0.2,4.9,0.8,7.1,2c1.3,0.7,2.4,1.7,3.4,2.8c0.2,0.4,0.6,0.6,0.8,1
		c0.4,0.7,0.8,1.4,1,2.2C98.1,284.2,98.5,288.1,98.5,292.2 M87.2,290.6c-0.1-1.4-0.4-2.8-1-4.1c-0.8-1.9-2.3-3-4.4-3.1
		c-0.5,0-1-0.1-1.6-0.1c-2.1,0-4.2,0-6.3,0c-2,0-4,0-6,0.1c-2,0.1-3.9,0.6-5.7,1.5c-1.3,0.7-2.1,1.7-2.1,3.3c0,2.7-0.1,5.4-0.4,8.1
		c-0.1,0.7-0.1,1.4-0.1,2.1c0,0.7,0.1,0.8,0.9,0.9c0.2,0,0.4,0,0.6,0h12.2c4.2,0,8.4,0,12.6,0c1.1,0,1.2-0.1,1.3-1.2
		C87.3,295.6,87.3,293.1,87.2,290.6 M118.2,274.9c0-7.2,0.6-14.5,0.5-21.7c0-0.2,0-0.4,0.1-0.7c0.1-0.9-0.2-1.2-1-0.9
		c-1.1,0.4-2.2,0.4-3.3,0.7c-0.9,0.2-1.9,0.4-2.9,0.6c-1.2,0.2-2.4,0.4-3.5,0.7c-0.9,0.2-1,0.3-1,1.3c0,4.9-0.3,9.7-0.5,14.6
		c-0.1,4.2-0.3,8.3-0.4,12.5c-0.2,4.9-0.3,9.7-0.5,14.6c-0.2,4.4-0.1,8.8-0.5,13.3c0.3,0.3,0.8,0.3,1.2,0.3c12.2,0,24.4,0,36.6,0
		c0.9,0,1,0,1.1-1c0.2-1.6,0.2-3.1,0.3-4.7c0.2-3,0.3-6.1,0.5-9.1c0.2-3.1,0.2-6.3,0.5-9.4c0.2-2.4,0.2-4.7,0.3-7.1
		c0-0.4,0.1-0.8,0.1-1.2c0.1-1.3,0.2-2.7,0.2-4c0-0.8-0.1-0.9-0.9-0.8c-0.5,0-0.9,0.3-1.4,0.3c-0.6,0.4-1.2,0.2-1.8,0.4
		c-2.2,0.5-4.3,0.9-6.5,1.2c-0.8,0.1-1.1,0.3-1.1,1.1c0,1.2-0.2,2.5-0.2,3.7c-0.1,2.9-0.3,5.8-0.4,8.6c-0.2,3.4-0.3,6.7-0.5,10.1
		c-0.1,1.2-0.1,1.2-1.2,1.2c-2.7,0-5.5,0-8.2,0c-1.6,0-3.2,0-4.8,0c-1.2,0-1.2-0.1-1.3-1.3c0-1,0.2-2,0.2-3
		c0.1-3.6,0.2-7.1,0.3-10.7c0.1-2.5,0.2-4.9,0.3-7.4c0-0.2,0-0.4,0.2-0.6C118.2,275.8,118.2,275.4,118.2,274.9 M238.5,324.3
		c-0.1,0.1-0.1,0.1-0.2,0.2c-1,0.7-1.8,1.7-2.8,2.4c-0.5,0.4-0.8,0.4-1.2,0c-2.1-2.1-3.9-4.4-6-6.5c-0.6-0.6-0.2-1.1,0.3-1.4
		c1.4-1,2.4-2.4,3.6-3.6c0.9-0.9,1.3-1.9,1.6-3.2c0.4-1.9,0.3-3.8,0.4-5.7c0.2-4.5,0.5-9,0.7-13.5c0.2-3.2,0.3-6.4,0.5-9.6
		c0.2-2.5,0.3-5,0.3-7.5c0-0.8,0.5-1.2,1.2-1.3c3.4-0.5,6.7-1.3,10-1.9c0.6-0.1,0.7,0.1,0.7,0.7c-0.4,3.7-0.2,7.4-0.6,11.1
		c-0.3,3.1-0.1,6.3-0.4,9.4c-0.4,3.6-0.1,7.3-0.6,11c-0.2,2-0.2,4.1-0.2,6.2c0,3.8-1.3,7-3.9,9.7C240.8,322,239.8,323.2,238.5,324.3
		 M364.5,254.5c-1-0.9-1-0.9-1.9,0c-1.8,1.8-3.7,3.6-5.5,5.5c-0.8,0.7-0.9,0.7-1.6,0c-1.9-1.9-3.8-3.8-5.6-5.6
		c-0.7-0.7-0.9-0.7-1.6,0c-2.1,2.1-4.3,4.2-6.4,6.3c-0.6,0.6-0.6,0.7,0,1.3c1.4,1.4,2.8,2.8,4.1,4.1c0.8,0.8,1.6,1.6,2.5,2.5
		c0.3,0.3,0.6,0.5,1,0.1c0-0.3,0.3-0.5,0.5-0.7c0.6-0.6,1.3-1.3,1.9-1.9c1.3-1.3,2.5-2.6,3.8-3.8c0.6-0.6,0.6-0.5,1.2,0
		c0.2,0.2,0.3,0.3,0.5,0.5c1.9,1.9,3.7,3.7,5.6,5.6c0.6,0.6,0.7,0.6,1.3,0.1c2.2-2.2,4.3-4.4,6.5-6.5c0.4-0.4,0.4-0.6,0-1
		c-1-0.9-1.9-1.9-2.9-2.9c-1-1.1-2.1-2-3-3.1C364.7,254.7,364.6,254.6,364.5,254.5 M373.8,286.7c-0.1,3.7-0.2,7.3-0.8,11
		c-0.6,3.3-1.8,6.3-4.4,8.6c-2.5,2.1-5.4,3.1-8.6,3.6c-0.4,0.1-0.9,0.2-1.3,0c-0.5-0.2-1-0.2-1.5-0.2c-0.3,0-0.6,0-0.9,0
		c-33.2,0-66.4,0-99.6,0c-0.1,0-0.2,0-0.2,0c0.1,0,0.2,0,0.3,0c33.1,0,66.2,0,99.3,0c0.1,0,0.2,0,0.2,0h0.2c0.2,0,0.5,0,0.7,0
		c0.2,0,0.4,0.1,0.6,0.2c0.1,0.2,0,0.3-0.2,0.4c-0.3,0-0.7,0-1,0c-33.7,0-67.4,0-101.1,0c-1.5,0-1.5,0-1.5-1.5
		c0.2-7,0.5-13.9,0.7-20.9c0.1-4.4,0.4-8.8,0.4-13.2c0.1-6.6,0.7-13.1,0.6-19.7c0-0.9,0.5-1.2,1.2-1.3c3.2-0.5,6.4-1.2,9.6-1.8
		c0.9-0.2,1.1,0.3,1,1c-0.2,3.5,0,7-0.2,10.6c-0.2,3.3-0.2,6.7-0.3,10c-0.2,6.8-0.4,13.7-0.7,20.5c-0.1,1.5-0.2,3-0.1,4.5
		c0,0.8,0.2,1.1,1.1,1.1c2.8-0.1,5.6,0,8.3,0c0.8,0,1.2-0.3,1.2-1.1c0.1-4.2,0.3-8.5,0.4-12.7c0.2-6.8,0.5-13.6,0.7-20.4
		c0.1-3.1,0.3-6.3,0.3-9.4c0-1.9,0.2-2,2-2.3c2.4-0.4,4.7-0.9,7.1-1.4c0.6-0.1,1.2-0.2,1.8-0.3c1-0.2,1.2-0.1,1.1,1
		c-0.4,5.6-0.2,11.2-0.4,16.7c-0.1,2-0.2,4-0.2,5.9c0,0.5-0.2,1.1,0.3,1.3c0.5,0.3,0.9-0.2,1.3-0.5c1.9-1.3,4-2.1,6.2-2.8
		c2.6-0.9,5.3-1.1,8-1.1c2.3,0,4.7,0,7,0.1c3.4,0.2,6.6,1,9.4,2.9c2.8,2.1,4.2,5,4.8,8.2c1,4.7,1,9.5,0.6,14.3
		c-0.1,1.1,0.1,1.3,1.2,1.3c2.4,0,4.9,0,7.3,0c0.9,0,1.1-0.3,1-1.1c-0.2-4,0-8.1,0.5-12.1c0.6-4.6,2.4-8.7,6.4-11.5
		c2.7-1.9,5.8-2.8,9.1-2.9c3-0.1,6-0.2,8.9,0.4c2.7,0.6,5.2,1.6,7.4,3.3c1.7,1.4,3,3.2,3.8,5.2C373.6,282.6,373.9,284.7,373.8,286.7
		 M254.8,299.9c0,0.6,0,1.2,0,1.8c0-1,0-2,0-3c0-0.3,0-0.7,0-1c0,0.3,0,0.7,0,1C254.8,299,254.8,299.5,254.8,299.9 M256.3,309.6
		c-1.5,0-1.5-0.2-1.5-2c0-0.9,0-1.9,0-2.8c0,1.3-0.1,2.6-0.1,3.9c0,0.6,0.2,0.9,0.8,0.9C255.8,309.6,256.1,309.6,256.3,309.6
		 M315.8,288.4c-0.9-3.7-2.8-5.1-6.2-5.1c-2.7,0-5.3,0-8,0c-1.6,0-3.2,0-4.7,0.1c-2,0.1-3.9,0.5-5.7,1.5c-1.3,0.7-2.1,1.7-2.1,3.3
		c0,2.1-0.1,4.2-0.3,6.3c-0.1,1.3-0.1,2.5-0.2,3.8c0,0.8,0.1,1,0.9,1c0.2,0,0.4,0,0.6,0c4.1,0,8.1,0,12.2,0c4.2,0,8.4,0,12.6,0
		c1,0,1.1-0.1,1.2-1.1c0.2-1.7,0.2-3.4,0.2-5.2C316.2,291.5,316.1,289.9,315.8,288.4 M361.6,286.4c-0.1-1.8-0.8-3.2-2.6-3.9
		c-0.7-0.3-1.3-0.3-1.9-0.4c-1.3-0.3-2.7-0.1-4,0.3c-2,0.7-2.9,2.3-3.3,4.2c-0.4,1.9-0.5,3.8-0.5,5.8c0,0.8,0,1.6,0,2.5
		c0,1.7,0.9,2.8,2.3,3.5c1.6,0.8,3.3,0.8,5,0.7c0.7-0.1,1.4-0.3,2-0.6c1.4-0.8,1.9-2.1,2.4-3.5c0.2-0.8,0.2-1.6,0.3-2.3
		C361.5,290.5,361.7,288.4,361.6,286.4"/>
	<path class="st1" d="M163.7,378.6c-1.1,0-2.2,0-3.4,0c-0.5,0-0.9,0-1.3-0.1c-2.4-0.3-3.6-1.4-4.3-3.7c-0.7-2.4-0.4-4.8-0.3-7.3
		c0.1-1.8,0.2-3.5,0.3-5.3c0.2-2.8,0.3-5.5,0.5-8.3c0-0.7,0.1-0.8,0.9-0.8c1.9,0,3.9,0,5.8,0c0.7,0,0.9,0.2,0.8,0.9
		c-0.4,3.5-0.4,7.1-0.8,10.7c-0.2,1.6-0.1,3.2-0.2,4.8c-0.1,1.4,0.5,2.1,2,2.1c1.4-0.1,2.9,0,4.3,0c0.9,0,1-0.1,1-1
		c0.1-1.2,0.2-2.4,0.2-3.6c0-3.8,0.5-7.5,0.6-11.2c0-0.6,0.1-1.3,0.1-1.9c0-0.5,0.3-0.7,0.8-0.7c2,0,4,0,6,0c0.6,0,0.7,0.4,0.7,0.9
		c-0.1,1.6-0.1,3.2-0.3,4.8c-0.2,1.4-0.2,2.8-0.3,4.3c-0.4,5.3-0.7,10.6-1,15.9c-0.1,1.6-0.1,3.3-0.7,4.9c-1,2.8-3,4.5-5.7,5.4
		c-1.9,0.6-3.8,0.9-5.7,1c-2.8,0.1-5.5,0.3-8.3-0.1c-1.2-0.1-1.2-0.2-1.1-1.3c0.1-1.4,0.5-2.7,0.5-4c0-0.7,0.2-0.8,1-0.8
		c2,0,4,0,6,0c1.3,0,2.5-0.2,3.7-0.6c2.3-0.7,3.2-2.5,3.5-4.4c0.1-0.6-0.3-0.7-0.8-0.7C166.7,378.6,165.2,378.6,163.7,378.6
		 M356.7,366.4c0-1.9,0-3.7,0-5.6c0-1,0.2-1.1,1.1-1.1c0.7,0,1.4,0,2.1,0c0.7,0,0.9-0.1,0.9-0.8c0.1-1.4,0.2-2.8,0.3-4.3
		c0-0.7-0.1-0.8-0.8-0.8c-0.7,0-1.5,0-2.2,0c-1.1,0-1.1,0-1.1-1.1c0.1-1.8,0.1-3.5,0.2-5.3c0-0.9,0-1-0.9-0.8
		c-1.8,0.4-3.7,0.7-5.5,1.1c-0.9,0.2-1,0.2-1,1.1c-0.1,1.4-0.2,2.8-0.2,4.2c0,0.7-0.1,0.8-0.9,0.8c-0.7,0-1.4,0-2.1,0
		c-0.5,0-0.8,0.2-0.8,0.7c0,1.5,0,2.9-0.2,4.4c-0.1,0.6,0.2,0.8,0.8,0.8c0.3,0,0.7,0,1,0c2,0,1.9,0,1.9,1.9c-0.2,4-0.3,7.9-0.4,11.9
		c-0.1,2.8,1.1,4.3,3.7,5c0.4,0.1,0.8,0.1,1.2,0.1c1.7,0,3.4,0,5.2,0c0.4,0,0.8,0,1.1,0c0.5,0,0.7-0.3,0.7-0.7c0-1.4,0-2.8,0-4.2
		c0-0.5-0.2-0.8-0.8-0.8c-0.8,0-1.7,0-2.5,0c-0.9,0-1.1-0.3-1.1-1.2c0.1-1.8,0.1-3.6,0.2-5.4C356.6,366.4,356.6,366.4,356.7,366.4
		 M122.9,377.9c0,0.5,0.2,0.7,0.8,0.7c1.9,0,3.7,0,5.6,0c0.7,0,0.9-0.1,0.9-0.8c0.1-1.2,0.1-2.5,0.2-3.7c0.1-4.4,0.2-8.8,0.3-13.2
		c0-1,0.1-1.1,1.1-1.1c1.5,0,2.9-0.1,4.4,0c0.6,0,0.8-0.1,0.9-0.7c0.1-1.6,0.3-3.2,0.4-4.8c0.1-0.9-0.1-0.9-1-1c-0.3,0-0.5,0-0.8,0
		c-3.7-0.1-7.4,0-11,0.5c-0.8,0.1-0.9,0.2-1,1c-0.1,1.6-0.1,3.3-0.2,4.9c-0.2,5.2-0.3,10.4-0.6,15.6
		C122.9,376.2,122.9,377.1,122.9,377.9 M366.8,353.8c-0.7,0.1-0.8,0.2-0.8,1.1c0,5.4-0.4,10.7-0.5,16.1c0,1.2,0,2.4-0.1,3.6
		c-0.1,1.1-0.1,2.2-0.1,3.3c0,0.8,0.1,0.9,0.9,0.9c0.1,0,0.3,0,0.4,0c1.7,0,3.4,0,5,0c0.8,0,0.9-0.1,0.9-0.9
		c0.1-5.2,0.3-10.3,0.4-15.5c0-0.5,0-1,0-1.5c0-0.8,0.1-0.9,0.9-0.9c1.5,0,2.9,0,4.4-0.1c0.9,0,1.1-0.1,1.1-1c0.1-1.5,0.2-3,0.3-4.5
		c0-0.9-0.1-1-0.9-1c-1.3,0-2.6,0-4.2,0C372.1,353.1,369.5,353.6,366.8,353.8 M142.5,353.3c-0.6,0-0.8,0.2-0.8,0.8
		c-0.1,3-0.3,6.1-0.4,9.1c0,0.8,0,1.7-0.1,2.5c-0.3,4-0.4,7.9-0.6,11.9c0,1,0,1,1,1.1c1.8,0,3.7,0,5.5,0c1,0,1.1-0.1,1.1-1.1
		c0.1-3.5,0.2-7,0.4-10.6c0.2-2.9,0.2-5.8,0.3-8.8c0.1-1.3,0.2-2.7,0.2-4c0-0.8,0-0.8-0.8-0.9c-0.9,0-1.9,0-2.8,0
		C144.5,353.3,143.5,353.3,142.5,353.3 M205,364.6c-0.2,3.6-0.4,7.2-0.6,10.8c0,0.8-0.1,1.6-0.2,2.5c0,0.6-0.3,0.8-0.8,0.8
		c-1.9-0.1-3.7,0-5.6,0c-0.9,0-1.9,0-2.8,0c-2.8,0-5.5,0.1-8.3-0.1c-0.9-0.1-1.7-0.2-2.5-0.7c-1.4-0.8-2-2-2.2-3.5
		c-0.2-1.4-0.4-2.9-0.1-4.4c0.5-3.4,2.6-5.8,6-6.5c1.2-0.2,2.4-0.4,3.6-0.4c1.8,0,3.7,0,5.5,0c1.1,0,1.3-0.2,1.1-1.3
		c-0.2-1.9-0.7-2.4-2.7-2.5c-0.4,0-0.8,0-1.2,0c-3,0-6.1,0-9.1,0c-0.3,0-0.5,0-0.8,0c-0.5,0-0.8-0.2-0.8-0.8c0-1.5,0-3.1,0-4.6
		c0-0.4,0.2-0.6,0.6-0.6c0.3,0,0.5,0,0.8,0c3.1,0,6.1,0,9.2,0c1.8,0,3.6,0.1,5.4,0.5c2.3,0.6,4.5,1.7,5.2,5.2
		C205.1,360.9,205.2,362.7,205,364.6 M197,368.4c-1.8,0-3.6,0-5.4,0c-1.9,0-2.7,1-2.7,2.8c0,1.3,0.4,1.8,1.7,1.9c1,0.1,2,0,3,0v0
		c1,0,2,0,3,0c0.5,0,0.8-0.2,0.8-0.7c0.1-1,0.3-2.1,0.4-3.1C198,368.6,197.8,368.4,197,368.4 M342.7,361.5c-0.2,1.7-0.1,3.4-0.2,5.1
		c0,0.3,0,0.5,0,0.8c0,1.1-0.1,1.2-1.2,1.2c-1,0-2,0-3,0s-2,0-3,0c-2,0-4,0-6.1,0c-1,0-1.1,0.1-1,1.1c0.1,2,1.3,3.1,3.3,3.2
		c1.9,0.1,3.8,0,5.7,0c1.4,0,2.7,0,4,0c0.8,0,0.9,0.1,0.9,0.9c0,1.3,0,2.5-0.1,3.8c0,0.8-0.1,0.9-0.9,0.9c-3.7,0-7.4,0-11.1,0
		c-1.5,0-3.1-0.2-4.5-0.7c-2.3-0.7-3.7-2.3-4.2-4.7c-0.6-2.5-0.4-5.1-0.3-7.6c0.1-1.6,0.2-3.2,0.3-4.8c0.1-1.3,0.4-2.5,0.9-3.7
		c0.9-1.7,2.3-2.8,4.1-3.4c1-0.3,2-0.4,3.1-0.4c2.5,0,5,0,7.4,0c3.1,0,5.1,1.9,5.7,5C342.7,359.4,342.8,360.5,342.7,361.5
		 M336.4,360.8c0-1.3-0.5-1.8-1.8-1.9c-1.2,0-2.5,0-3.7,0c-1.5,0-2.3,1.1-2.4,2.2c-0.1,0.6-0.1,1.1-0.1,1.7c0,0.8,0.1,0.9,1,1
		c1,0,2,0,3,0s2,0,3,0c0.8,0,0.9-0.1,1-1C336.4,362.1,336.4,361.4,336.4,360.8 M315.9,377.1c0-1.7,0-3.5,0-5.2
		c0-0.9-0.1-1.9,0.2-2.8c0.3-0.8,0.2-1.6,0.2-2.4c0-2.4,0-4.7,0-7.1c0-1.1-0.3-2-0.7-3c-0.2-0.4-0.2-0.9-0.5-1.2
		c-1-1.2-2.4-1.8-3.8-1.8c-10.3-0.1-20.6,0-30.8,0c-1.1,0-1.1,0-1.1,1c0,1.6,0.2,3.3-0.2,4.9c-0.3,1.1-0.2,2.3-0.2,3.5
		c0,1.1,0,2.1,0,3.2c0,1.1,0.1,2.2-0.2,3.2c-0.3,1.3-0.2,2.6-0.2,3.9c0,1.2,0,2.5,0,3.7c0,0.4-0.2,0.8,0,1.1c1.9,0,3.7,0,5.6,0
		c0.7,0,0.7,0.1,0.7-0.6c0-0.9,0-1.9,0.1-2.8c0.1-1.3,0.4-2.6,0.4-3.9c0-3.3,0-6.5,0.2-9.8c0-0.2,0-0.4,0.1-0.6c0.4-1,0-1.1,1.3-1.1
		c0.4,0,0.9,0,1.4,0c1.8,0,3.5,0,5.3,0c0.8,0,1,0.1,1,0.8c0,1.6,0.1,3.3,0,4.9c-0.2,1.9-0.2,3.9-0.4,5.8c-0.1,1,0.1,2-0.1,3
		c-0.2,1.2-0.1,2.4-0.2,3.6c0,0.5,0.1,0.7,0.7,0.7c1.7-0.1,3.5-0.1,5.2,0c0.6,0.1,0.6-0.1,0.6-0.6c0-1.4,0-2.7,0-4.1
		c0-0.9-0.1-1.8,0.2-2.7c0.2-0.6,0.2-1.2,0.2-1.9c0-2.5,0-5.1,0-7.7c0-0.3,0-0.6,0-0.9c0.1-0.7,0.4-1,1.2-1c0.6,0,1.1,0,1.7,0
		c1.6,0.1,3.1-0.2,4.7,0.2c0.9,0.2,1.4,0.6,1.4,1.5c0,2.1,0.3,4.1-0.2,6.2c-0.2,0.9-0.2,1.7-0.2,2.6c0,2.7,0.1,5.3-0.1,8
		c0,0.4,0.1,0.5,0.4,0.5c2-0.3,4-0.1,6-0.1C316,377.8,315.9,377.4,315.9,377.1 M253.6,361.5c0.2,0.7,0.1,1.3,0.1,2
		c-0.1,4.8-0.4,9.5-0.3,14.3c0,0.9,0.1,0.9,0.9,0.9c1.7,0,3.5,0,5.2,0c0.8,0,0.9,0,0.9-0.8c0.1-3.2,0.2-6.4,0.4-9.7
		c0.1-2.7,0.1-5.5,0.1-8.2c0-1.5-0.4-2.9-1.1-4.2c-0.5-1-1.4-1.7-2.6-2c-0.9-0.2-1.8-0.4-2.8-0.4c-2.5,0-5.1,0-7.7,0
		c-0.9,0-0.9-0.1-0.9-1c0.1-3.1,0.3-6.3,0.4-9.4c0-0.8-0.1-0.9-0.9-0.8c-1.7,0.4-3.4,0.6-5.1,0.8c-1,0.1-1.2,0.3-1.2,1.3
		c0,1.2,0,2.4-0.1,3.6c-0.2,4.6-0.4,9.3-0.5,13.9c-0.1,3.2-0.3,6.4-0.3,9.7c0,0.3,0,0.5-0.1,0.8c0,1.8,0,3.6,0,5.4
		c0,0.8,0,0.9,0.8,0.9c1.9,0,3.7,0,5.6,0c0.5,0,0.8-0.1,0.9-0.7c0-0.7,0.1-1.4,0.1-2.1c0.1-3.6,0.2-7.1,0.3-10.7
		c0-1.2,0.1-2.5,0.2-3.7c0-0.5,0.3-0.8,0.8-0.8c1.7,0,3.4-0.3,5.2-0.2c0.6,0,1.1,0.1,1.5,0.6C253.4,361.1,253.5,361.3,253.6,361.5
		 M150.1,345c-1.3-1.3-2.6-2.6-3.9-3.9c-0.3-0.3-0.6-0.4-0.9,0c-1.3,1.3-2.6,2.6-3.9,3.9c-0.3,0.3-0.4,0.6,0,0.9
		c1.3,1.3,2.6,2.6,3.9,3.9c0.3,0.3,0.6,0.3,1,0c1.3-1.3,2.6-2.6,3.9-3.9c0.1-0.1,0.3-0.3,0.3-0.5C150.4,345.3,150.2,345.1,150.1,345
		 M404.5,365.1c-0.2,1.7,0,3.5-0.3,5.3c-0.2,1.3-0.4,2.7-1.1,3.9c-1.4,2.5-3.6,3.8-6.2,4.4c-3.1,0.7-6.2,0.6-9.2-0.4
		c-3.2-1.1-5.2-3.3-5.9-6.7c-0.5-2.3-0.1-4.6,0-6.9c0-0.8,0-1.7,0.1-2.5c0.2-1.7,0.4-3.3,1.3-4.8c1.2-2.1,3.1-3.3,5.4-4
		c1.6-0.4,3.2-0.5,4.8-0.6c2.3,0,4.7,0.3,6.8,1.5c2.6,1.4,3.9,3.7,4.3,6.5C404.6,362.2,404.6,363.6,404.5,365.1 M397.2,362.3
		c-0.3-2.3-1.1-2.9-2.8-3.3c-0.6-0.1-1.3-0.1-1.9,0c-2.1,0.2-3.1,1.4-3.1,3.1c-0.1,1.8-0.3,3.5-0.3,5.3c0,0.8,0,1.6,0,2.4
		c0.1,1.5,1,2.4,2.4,2.7c0.8,0.2,1.7,0.2,2.6,0.1c1.8-0.3,2.6-1.3,2.8-3.1c0.1-1.9,0.1-3.8,0.4-5.7
		C397.2,363.2,397.2,362.8,397.2,362.3 M231.6,349.9c-0.1,0.4-0.1,0.7-0.1,1.1c0,2.9,0,5.8,0,8.7c0,1.7-0.1,3.4-0.4,5
		c-0.1,0.3,0,0.7,0,1c0,3.5,0,6.9,0,10.4c0,0.3,0,0.5,0,0.8c-0.1,1.4-0.2,1.5-1.6,1.5c-4.5,0-8.9,0-13.4,0c-1.5,0-2.8-0.4-4.1-1.2
		c-1.3-0.7-1.9-2-2.4-3.3c-0.4-1.1-0.6-2.2-0.5-3.4c0.1-1.8,0-3.7,0-5.5c0-1.2,0.2-2.5,0.4-3.7c0-0.2,0.1-0.4,0.1-0.7
		c-0.1-1.9,0.7-3.4,1.8-4.8c0.8-1.1,2.1-1.5,3.4-1.8c0.1,0,0.2,0,0.3,0c1.5-0.7,3.1-0.4,4.6-0.4c1.4,0,2.8,0,4.2,0
		c1.1,0,1.2-0.1,1.2-1.2c0-1.8,0.1-3.5,0-5.3c0-1,0.3-1.8,0.3-2.8c0-0.3,0.1-0.5,0.4-0.6c0.5-0.1,0.8-0.4,1.3-0.4c1-0.1,2-0.3,3-0.5
		c0.6-0.1,1.3,0.1,1.8-0.5c0.1,0.2,0.2,0.3,0.2,0.3C232,345,232.1,347.5,231.6,349.9 M224.3,360.5c0-0.6-0.2-0.8-0.8-0.8
		c-1.5,0-3,0-4.5,0c-0.2,0-0.4,0.1-0.7,0.1c-1.1,0.1-1.6,0.8-1.9,1.8c-0.1,0.3-0.1,0.6-0.1,0.9c-0.1,2.1-0.2,4.3-0.3,6.4
		c0,0.5,0,1,0.2,1.4c0.3,1.1,1,1.7,2.2,1.7c1.5,0,2.9,0,4.4,0c1.1,0,1.1,0,1.1-1.2c0.1-2.3,0.3-4.6,0.3-6.8
		C224.3,362.9,224.2,361.7,224.3,360.5"/>
	<path class="st2" d="M428.1,283.3c2.1-2,4.1-3.9,6.2-5.9c4.2-4.1,8.4-8.1,12.6-12.2c0.6-0.6,1.2-0.8,2-0.8c18.3,0,36.7,0,55,0
		c0.4,0,1,0.3,1.2-0.2c0.2-0.5-0.4-0.7-0.7-1c-8.7-8.8-17.5-17.5-26.2-26.3c-0.1-0.1-0.3-0.3-0.4-0.4c-0.5-0.6-0.5-0.7,0-1.2
		c0.6-0.6,1.3-1.3,1.9-1.9c5.8-5.8,11.6-11.6,17.4-17.4c0.3-0.3,0.8-0.5,0.7-1.1h0.5c0.5,0.5,1,1,1.5,1.5
		c16.5,16.5,33.1,33.1,49.6,49.6c0.5,0.5,1.1,1,1.4,1.7c0.4,0.5,0.9,1,1.3,1.4c22.8,22.8,45.5,45.5,68.3,68.3
		c0.4,0.4,0.8,0.8,1.2,1.2c0.5,0.6,0.3,0.9-0.4,1c-0.2,0-0.4,0-0.6,0c-0.4,0-0.8,0-1.1,0c-11.3-0.1-22.6-0.1-34-0.3
		c-10.9-0.2-21.8,0.1-32.6-0.2c-7.1-0.2-14.2,0-21.4-0.2c-12.4-0.4-24.8,0.1-37.1-0.2c-7-0.2-14,0-21-0.2c-3.3-0.1-6.6-0.1-9.9-0.2
		c-0.3,0-0.5,0-0.8,0c-0.3,0-0.6-0.1-0.8,0.3c-0.1,0.3,0.2,0.5,0.3,0.7c1,1,1.9,2,3,2.9c0.9,0.8,1.8,1.6,2.6,2.5
		c3.7,3.7,7.6,7.3,11.3,11c0.6,0.5,1.2,0.8,1.9,0.7c0.5,0,1.1,0,1.6,0c34.1,0,68.2,0,102.3,0c0.5,0,1-0.2,1.1,0.6
		c-0.2,1.1-1.2,1.7-1.9,2.4c-2.7,2.3-5.2,4.8-7.8,7.2c-4,3.7-8.1,7.5-12.1,11.2c-1.3,1.2-2.6,2.3-3.8,3.5c-1.1,1.2-2.4,1.6-4,1.6
		c-15.9,0-31.8,0-47.7,0c-0.5,0-1-0.1-1.4,0.1c0.1,0.6,0.5,0.8,0.8,1.1c7.4,7.4,15,14.7,22.4,22.2c1.6,1.7,1.6,1.7,0,3.4
		c-6.1,6.1-12.2,12.2-18.3,18.3c-0.3,0.3-0.6,0.6-0.9,0.8h-0.7c-0.4-0.3-0.7-0.6-1.1-1c-39.3-39.3-78.6-78.6-117.9-117.9
		c-0.4-0.4-1.2-0.7-0.9-1.4c0.3-0.6,1-0.3,1.5-0.3c8.6,0.2,17.2-0.1,25.8,0.2c6.5,0.2,13,0,19.6,0.2c6,0.2,11.9,0,17.9,0.1
		c10.8,0.1,21.6-0.1,32.4,0.2c8.1,0.2,16.1,0,24.2,0.2c5.8,0.2,11.6,0,17.4,0.1c6.9,0.2,13.7,0,20.6,0.1c0.2,0,0.6,0.2,0.7-0.2
		c0.1-0.2-0.1-0.4-0.3-0.6c-2.1-2-4.2-4.1-6.4-6c-0.2-0.2-0.4-0.4-0.7-0.6c-3.6-3.7-7.6-7.1-11.2-10.7c-0.5-0.5-1-0.5-1.5-0.5
		c-5.1,0-10.3,0-15.4,0c-31,0-61.9,0-92.9,0c-0.5,0-1.2,0.3-1.4-0.3c-0.2-0.6,0.5-0.8,0.9-1.1c1.8-1.6,3.4-3.3,5.1-5
		C427.4,283.9,427.7,283.5,428.1,283.3"/>
</g>
</svg>
